<?xml version="1.0" standalone="no"?>
<!DOCTYPE svg PUBLIC "-//W3C//DTD SVG 20010904//EN"
 "http://www.w3.org/TR/2001/REC-SVG-20010904/DTD/svg10.dtd">
<svg version="1.0" xmlns="http://www.w3.org/2000/svg"
 width="200.000000pt" height="200.000000pt" viewBox="0 0 200.000000 200.000000"
 preserveAspectRatio="xMidYMid meet">

<g transform="translate(0.000000,200.000000) scale(0.100000,-0.100000)"
fill="#000000" stroke="none">
<path d="M86 1823 c-16 -50 2 -58 149 -67 224 -15 415 -118 487 -263 28 -58
33 -77 33 -143 0 -62 -5 -85 -28 -132 -41 -83 -115 -146 -230 -195 -168 -71
-272 -159 -326 -273 -22 -47 -26 -69 -26 -150 0 -89 2 -99 34 -158 38 -70 113
-145 183 -182 39 -20 49 -22 62 -11 25 21 19 55 -13 74 -125 74 -191 171 -191
282 0 79 34 148 106 220 50 49 85 69 266 154 167 79 269 263 239 433 -16 91
-56 164 -130 239 -114 114 -278 176 -492 186 -110 5 -117 5 -123 -14z"/>
<path d="M1646 1536 c-45 -13 -80 -45 -526 -491 l-478 -478 -56 -154 c-31 -85
-56 -164 -56 -177 0 -13 9 -35 21 -50 31 -39 73 -34 244 29 l151 56 476 477
c406 406 478 483 487 517 23 87 6 153 -56 217 -54 56 -128 75 -207 54z m132
-93 c33 -20 62 -73 62 -111 0 -33 -24 -92 -38 -92 -4 0 -49 42 -100 93 -80 80
-91 95 -78 106 38 32 108 34 154 4z m-130 -176 l92 -92 -405 -405 -404 -404
-60 57 c-62 60 -93 70 -111 38 -14 -28 -15 -27 40 -86 l51 -53 -78 -30 c-107
-40 -154 -55 -159 -50 -2 3 19 67 47 144 l51 139 416 418 c229 229 419 417
422 417 3 0 47 -42 98 -93z"/>
</g>
</svg>
