<?xml version="1.0" standalone="no"?>
<!DOCTYPE svg PUBLIC "-//W3C//DTD SVG 20010904//EN"
 "http://www.w3.org/TR/2001/REC-SVG-20010904/DTD/svg10.dtd">
<svg version="1.0" xmlns="http://www.w3.org/2000/svg"
 width="200.000000pt" height="200.000000pt" viewBox="0 0 200.000000 200.000000"
 preserveAspectRatio="xMidYMid meet">

<g transform="translate(0.000000,200.000000) scale(0.100000,-0.100000)"
fill="#000000" stroke="none">
<path d="M877 1674 c-4 -4 -7 -29 -7 -55 l0 -49 -217 -2 -218 -3 -3 -217 -2
-217 -53 -3 -52 -3 0 -125 0 -125 52 -3 53 -3 2 -217 3 -217 217 -3 217 -2 3
-53 3 -52 125 0 125 0 3 52 3 53 213 0 c186 0 215 2 220 16 3 9 6 107 6 219
l0 204 53 3 52 3 0 125 0 125 -52 3 -53 3 -2 217 -3 217 -217 3 -217 2 -3 53
-3 52 -121 3 c-66 1 -123 -1 -127 -4z m213 -124 l0 -90 -90 0 -90 0 0 90 0 90
90 0 90 0 0 -90z m-220 -63 c0 -24 5 -48 12 -55 8 -8 49 -12 118 -12 69 0 110
4 118 12 7 7 12 31 12 55 l0 43 200 0 200 0 0 -199 0 -200 -52 -3 -53 -3 0
-125 0 -125 53 -3 52 -3 0 -200 0 -199 -200 0 -200 0 0 43 c0 24 -5 48 -12 55
-16 16 -220 16 -236 0 -7 -7 -12 -31 -12 -55 l0 -43 -200 0 -200 0 0 199 0
200 53 3 52 3 0 125 0 125 -52 3 -53 3 0 200 0 199 200 0 200 0 0 -43z m-330
-487 l0 -90 -90 0 -90 0 0 90 0 90 90 0 90 0 0 -90z m1100 0 l0 -90 -90 0 -90
0 0 90 0 90 90 0 90 0 0 -90z m-550 -550 l0 -90 -90 0 -90 0 0 90 0 90 90 0
90 0 0 -90z"/>
</g>
</svg>
